<svg id="color" enable-background="new 0 0 24 24" height="512" viewBox="0 0 24 24" width="512" xmlns="http://www.w3.org/2000/svg"><path d="m12 21.25c-.414 0-.75-.336-.75-.75v-3c0-.414.336-.75.75-.75s.75.336.75.75v3c0 .414-.336.75-.75.75z" fill="#cfd8dc"/><path d="m20.5 18h-17c-.965 0-1.75-.785-1.75-1.75v-11.5c0-.414.336-.75.75-.75h19c.414 0 .75.336.75.75v11.5c0 .965-.785 1.75-1.75 1.75z" fill="#f5f5f5"/><path d="m21.75 5.5h-19.5c-1.241 0-2.25-1.009-2.25-2.25s1.009-2.25 2.25-2.25h19.5c1.241 0 2.25 1.009 2.25 2.25s-1.009 2.25-2.25 2.25z" fill="#607d8b"/><path d="m12 24c-1.103 0-2-.897-2-2s.897-2 2-2 2 .897 2 2-.897 2-2 2z" fill="#607d8b"/><path d="m12 18h-.75v2.146c.232-.094.485-.146.75-.146z" fill="#b4bcc0"/><path d="m1.75 5.444v10.806c0 .965.785 1.75 1.75 1.75h7.75.75v-12.5h-9.75c-.172 0-.339-.019-.5-.056z" fill="#d5d5d5"/><path d="m12 1h-9.75c-1.241 0-2.25 1.009-2.25 2.25 0 1.069.749 1.966 1.75 2.194.161.037.328.056.5.056h9.75z" fill="#546d79"/><path d="m12 20c-.265 0-.518.052-.75.146-.732.297-1.25 1.016-1.25 1.854 0 1.103.897 2 2 2z" fill="#546d79"/><path d="m6.75 15.25c-.261 0-.521-.101-.717-.303-.385-.396-.376-1.029.02-1.414l3.818-3.714c.333-.326.848-.377 1.242-.122l2.114 1.371 3.251-3.953c.351-.426.982-.487 1.408-.137.426.351.488.981.137 1.408l-3.818 4.643c-.323.393-.89.481-1.317.204l-2.193-1.423-3.247 3.158c-.195.188-.447.282-.698.282z" fill="#03a9f4"/><path d="m17.885 6.978-4.454 5.416-2.863-1.857-4.535 4.412c.196.202.456.303.717.303.251 0 .503-.094.697-.283l3.247-3.158 2.193 1.423c.167.109.356.161.543.161.29 0 .577-.126.773-.365l3.818-4.643c.352-.429.291-1.058-.136-1.409z" fill="#0393d4"/></svg>